<svg width="900" height="751" viewBox="0 0 900 751" fill="none" xmlns="http://www.w3.org/2000/svg">
<path d="M771.186 9.06885C740.999 10.87 719.862 35.6763 695.206 50.0387C662.13 73.7291 623.211 91.9175 598.11 124.846C589.787 150.888 613.88 172.555 614.94 197.978C620.142 226.115 606.256 258.484 577.695 267.456C530.463 284.828 481.476 260.212 433.071 266.18C399.739 268.926 366.236 275.84 333.156 268.533C302.834 262.454 271.932 261.826 241.217 261.795C196.89 260.364 152.906 252.038 109.832 243.113C88.3324 250.719 89.7772 278.186 76.3841 293.47C56.1333 325.936 39.4039 361.056 33.2158 399.091C10.5223 492.177 -2.49002 591.189 20.1149 685.531C26.6386 700.714 15.7592 722.29 32.1926 732.544C50.8121 744.816 74.8407 742.3 95.9101 742.535C109.818 735.497 103.588 715.982 93.9576 707.847C78.9939 692.185 68.2542 672.972 63.0409 651.919C53.9002 621.47 49.7176 586.85 62.9214 557.078C73.4734 545.511 85.4575 533.517 85.7045 516.705C91.2563 491.413 97.9409 463.147 85.4548 439.009C70.772 398.635 88.4337 355.183 111.716 322.01C123.399 308.413 134.534 290.836 152.298 285.795C178.965 282.328 204.782 293.395 231.034 296.472C275.029 305.3 320.621 308.295 363.324 322.066C375.344 329.144 392.527 334.978 403.712 323.196C427.396 312.261 452.859 326.494 477.484 325.074C576.669 333.045 683.769 312.568 759.874 244.718C811.467 198.559 857.015 143.963 886.97 81.2736C894.126 67.3135 894.849 43.8458 876.483 38.6781C857.259 32.5359 835.691 34.8982 816.838 40.9486C802.044 48.7064 804.335 68.3361 812.953 79.9213C817.816 88.8617 827.706 102.379 819.011 111.734C807.505 115.879 791.05 107.653 793.039 93.9559C790.39 72.8531 780.071 50.0035 790.864 29.8529C794.482 21.424 789.695 10.9484 780.191 9.67105C785.85 13.1007 773.589 7.10883 771.186 9.06885Z" stroke="#30C2C2" stroke-width="7.59992" stroke-linejoin="round"/>
</svg>
